<svg aria-hidden="true" style="position: absolute; width: 0; height: 0; overflow: hidden;" version="1.1"
     xmlns="http://www.w3.org/2000/svg" xmlns:xlink="http://www.w3.org/1999/xlink">
  <defs>
    <symbol id="icon-menu" viewBox="0 0 56 32">
      <path
        d="M1.882 0.941h52.706c1.040 0 1.882 0.843 1.882 1.882s-0.843 1.882-1.882 1.882h-52.706c-1.040 0-1.882-0.843-1.882-1.882s0.843-1.882 1.882-1.882z"></path>
      <path
        d="M1.882 14.118h52.706c1.040 0 1.882 0.843 1.882 1.882s-0.843 1.882-1.882 1.882h-52.706c-1.040 0-1.882-0.843-1.882-1.882s0.843-1.882 1.882-1.882z"></path>
      <path
        d="M1.882 27.294h52.706c1.040 0 1.882 0.843 1.882 1.882s-0.843 1.882-1.882 1.882h-52.706c-1.040 0-1.882-0.843-1.882-1.882s0.843-1.882 1.882-1.882z"></path>
    </symbol>
    <symbol id="icon-earch" viewBox="0 0 31 32">
      <path fill="#fd5103" style="fill: var(--color1, #fd5103)"
            d="M12.8 23.68c2.272-0 4.478-0.761 6.268-2.161l5.627 5.627 1.81-1.81-5.627-5.627c1.4-1.79 2.161-3.997 2.162-6.269 0-5.646-4.594-10.24-10.24-10.24s-10.24 4.594-10.24 10.24c0 5.646 4.594 10.24 10.24 10.24zM12.8 5.76c4.236 0 7.68 3.444 7.68 7.68s-3.444 7.68-7.68 7.68c-4.236 0-7.68-3.444-7.68-7.68s3.444-7.68 7.68-7.68z"></path>
    </symbol>
    <symbol id="icon-close" viewBox="0 0 32 32">
      <path
        d="M17.253 16l7.369-7.369c0.146-0.17 0.222-0.389 0.213-0.613s-0.101-0.436-0.26-0.594-0.371-0.251-0.594-0.26c-0.224-0.009-0.442 0.067-0.613 0.213l-7.369 7.369-7.369-7.378c-0.167-0.167-0.394-0.261-0.631-0.261s-0.464 0.094-0.631 0.261c-0.167 0.167-0.261 0.394-0.261 0.631s0.094 0.464 0.261 0.631l7.378 7.369-7.378 7.369c-0.093 0.080-0.169 0.178-0.222 0.288s-0.083 0.23-0.088 0.353 0.016 0.244 0.061 0.358c0.045 0.114 0.112 0.218 0.199 0.304s0.19 0.154 0.304 0.199 0.236 0.065 0.359 0.061c0.122-0.005 0.243-0.035 0.353-0.088s0.208-0.129 0.288-0.222l7.378-7.369 7.369 7.369c0.17 0.146 0.389 0.222 0.613 0.213s0.436-0.101 0.594-0.26 0.251-0.371 0.26-0.594c0.009-0.224-0.067-0.442-0.213-0.613l-7.369-7.369z"></path>
    </symbol>
    <symbol id="icon-arrow" viewBox="0 0 32 32">
      <path fill="#fd5103" style="fill: var(--color1, #fd5103)"
            d="M7.79 12.791l7.543 7.543 7.543-7.543-0.943-0.943-6.6 6.6-6.6-6.6-0.943 0.943z"></path>
      <path fill="#fd5103" style="fill: var(--color1, #fd5103)"
            d="M7.79 12.791l7.543 7.543 7.543-7.543-0.943-0.943-6.6 6.6-6.6-6.6-0.943 0.943z"></path>
    </symbol>
    <symbol id="icon-toggle" viewBox="0 0 61 32">
      <path fill="#fff" style="fill: var(--color2, #fff)"
            d="M15.238 1.223h30.476c8.161 0 14.777 6.616 14.777 14.777s-6.616 14.777-14.777 14.777h-30.476c-8.161 0-14.777-6.616-14.777-14.777s6.616-14.777 14.777-14.777z"></path>
      <path fill="#fd5103" style="fill: var(--color1, #fd5103)"
            d="M25.905 16c0 6.733-5.458 12.19-12.19 12.19s-12.19-5.458-12.19-12.19c0-6.733 5.458-12.19 12.19-12.19s12.19 5.458 12.19 12.19z"></path>
      <path fill="none" stroke="#fd5103" style="stroke: var(--color1, #fd5103)" stroke-linejoin="miter"
            stroke-linecap="butt" stroke-miterlimit="4" stroke-width="0.9214"
            d="M15.238 1.223h30.476c8.161 0 14.777 6.616 14.777 14.777s-6.616 14.777-14.777 14.777h-30.476c-8.161 0-14.777-6.616-14.777-14.777s6.616-14.777 14.777-14.777z"></path>
    </symbol>
    <symbol id="icon-heart" viewBox="0 0 37 32">
      <path fill="#fd5103" style="fill: var(--color1, #fd5103)"
            d="M26.674 2.56c0.92-0.001 1.83 0.184 2.678 0.545s1.616 0.889 2.261 1.554c1.327 1.365 2.071 3.204 2.071 5.12s-0.744 3.755-2.071 5.12l-13.086 13.427-13.086-13.427c-1.327-1.365-2.071-3.204-2.071-5.12s0.744-3.755 2.071-5.12c0.644-0.665 1.413-1.193 2.261-1.554s1.758-0.546 2.678-0.546c0.92 0 1.83 0.186 2.678 0.546s1.617 0.889 2.261 1.554l3.208 3.328 3.196-3.302c0.642-0.673 1.411-1.208 2.262-1.574s1.766-0.553 2.69-0.551zM26.674 0c-1.256-0.001-2.5 0.252-3.658 0.744s-2.208 1.214-3.087 2.123l-1.402 1.434-1.402-1.434c-0.881-0.907-1.93-1.628-3.088-2.119s-2.401-0.745-3.657-0.745c-1.256 0-2.499 0.253-3.657 0.745s-2.208 1.212-3.088 2.119c-1.791 1.848-2.795 4.335-2.795 6.925s1.004 5.077 2.795 6.925l14.893 15.283 14.893-15.283c1.791-1.848 2.795-4.335 2.795-6.925s-1.004-5.077-2.795-6.925c-0.88-0.908-1.93-1.629-3.088-2.121s-2.401-0.746-3.657-0.746z"></path>
    </symbol>
  </defs>
</svg>
